<mxfile host="65bd71144e">
    <diagram id="pXu6Dv5wBZJNs5Zq40fp" name="第 1 页">
        <mxGraphModel dx="1184" dy="920" grid="1" gridSize="10" guides="1" tooltips="1" connect="1" arrows="1" fold="1" page="1" pageScale="1" pageWidth="827" pageHeight="1169" background="none" math="0" shadow="0">
            <root>
                <mxCell id="0"/>
                <mxCell id="1" parent="0"/>
                <mxCell id="3" value="" style="rounded=0;whiteSpace=wrap;html=1;sketch=1;" parent="1" vertex="1">
                    <mxGeometry x="220" y="350" width="400" height="280" as="geometry"/>
                </mxCell>
                <mxCell id="7" value="(0,20)" style="text;html=1;strokeColor=none;fillColor=none;align=center;verticalAlign=middle;whiteSpace=wrap;rounded=0;sketch=1;" parent="1" vertex="1">
                    <mxGeometry x="180" y="320" width="60" height="30" as="geometry"/>
                </mxCell>
                <mxCell id="8" value="A(imagePanel)" style="text;strokeColor=none;fillColor=none;html=1;fontSize=24;fontStyle=1;verticalAlign=middle;align=center;sketch=1;rounded=0;fontColor=#B3B3B3;" parent="1" vertex="1">
                    <mxGeometry x="540" y="300" width="190" height="40" as="geometry"/>
                </mxCell>
                <mxCell id="10" value="" style="rounded=0;whiteSpace=wrap;html=1;fillColor=#60a917;fontColor=#ffffff;strokeColor=#2D7600;sketch=1;" parent="1" vertex="1">
                    <mxGeometry x="360" y="460" width="120" height="60" as="geometry"/>
                </mxCell>
                <mxCell id="11" value="(B.x, B.y)" style="text;html=1;strokeColor=none;fillColor=none;align=center;verticalAlign=middle;whiteSpace=wrap;rounded=0;sketch=1;" parent="1" vertex="1">
                    <mxGeometry x="330" y="430" width="60" height="30" as="geometry"/>
                </mxCell>
                <mxCell id="19" value="&lt;font style=&quot;font-size: 16px ; font-weight: normal&quot;&gt;B(image_Real_Label)&lt;/font&gt;" style="text;strokeColor=none;fillColor=none;html=1;fontSize=24;fontStyle=1;verticalAlign=middle;align=center;sketch=1;rounded=0;fontColor=#B3B3B3;" parent="1" vertex="1">
                    <mxGeometry x="450" y="420" width="160" height="40" as="geometry"/>
                </mxCell>
                <mxCell id="23" value="" style="endArrow=none;dashed=1;html=1;fontSize=16;sketch=1;rounded=0;" parent="1" edge="1">
                    <mxGeometry width="50" height="50" relative="1" as="geometry">
                        <mxPoint x="420" y="280" as="sourcePoint"/>
                        <mxPoint x="420" y="710" as="targetPoint"/>
                    </mxGeometry>
                </mxCell>
                <mxCell id="24" value="r" style="endArrow=none;dashed=1;html=1;fontSize=16;sketch=1;rounded=0;" parent="1" edge="1">
                    <mxGeometry width="50" height="50" relative="1" as="geometry">
                        <mxPoint x="140" y="490" as="sourcePoint"/>
                        <mxPoint x="680" y="489.5" as="targetPoint"/>
                    </mxGeometry>
                </mxCell>
                <mxCell id="35" value="&lt;ul&gt;&lt;li&gt;B.x = A.w /2 - B.w /2;&lt;/li&gt;&lt;li&gt;B.y = A.h- ( A.h /2&amp;nbsp; + B.h /2) + 20;&lt;/li&gt;&lt;li&gt;B.w = pixmap.w;&lt;/li&gt;&lt;li&gt;B.h = pixmap.h;&lt;/li&gt;&lt;li&gt;(pixmap为导入的图片文件)&amp;nbsp;&lt;/li&gt;&lt;/ul&gt;" style="text;strokeColor=none;fillColor=none;html=1;whiteSpace=wrap;verticalAlign=middle;overflow=hidden;fontSize=16;sketch=1;rounded=0;" parent="1" vertex="1">
                    <mxGeometry x="320" y="700" width="290" height="250" as="geometry"/>
                </mxCell>
                <mxCell id="36" value="" style="shape=curlyBracket;whiteSpace=wrap;html=1;rounded=1;sketch=1;fontSize=16;strokeColor=default;" parent="1" vertex="1">
                    <mxGeometry x="320" y="770" width="20" height="30" as="geometry"/>
                </mxCell>
                <mxCell id="38" value="" style="shape=curlyBracket;whiteSpace=wrap;html=1;rounded=1;sketch=1;fontSize=16;strokeColor=default;" parent="1" vertex="1">
                    <mxGeometry x="320" y="820" width="20" height="30" as="geometry"/>
                </mxCell>
                <mxCell id="39" value="" style="shape=crossbar;whiteSpace=wrap;html=1;rounded=1;direction=south;sketch=1;fontSize=16;strokeColor=#FF33FF;rotation=90;dashed=1;dashPattern=1 1;" parent="1" vertex="1">
                    <mxGeometry x="310" y="280" width="20" height="200" as="geometry"/>
                </mxCell>
                <mxCell id="40" value="" style="shape=crossbar;whiteSpace=wrap;html=1;rounded=1;direction=south;sketch=1;fontSize=16;strokeColor=#FF33FF;rotation=90;dashed=1;dashPattern=1 1;" parent="1" vertex="1">
                    <mxGeometry x="280" y="350" width="20" height="140" as="geometry"/>
                </mxCell>
                <mxCell id="42" value="" style="shape=crossbar;whiteSpace=wrap;html=1;rounded=1;direction=south;sketch=1;fontSize=16;strokeColor=#FF33FF;rotation=-180;dashed=1;dashPattern=1 1;" parent="1" vertex="1">
                    <mxGeometry x="340" y="460" width="20" height="170" as="geometry"/>
                </mxCell>
                <mxCell id="44" value="" style="shape=crossbar;whiteSpace=wrap;html=1;rounded=1;direction=south;sketch=1;fontSize=16;strokeColor=#FF33FF;rotation=-180;dashed=1;dashPattern=1 1;" parent="1" vertex="1">
                    <mxGeometry x="300" y="490" width="20" height="140" as="geometry"/>
                </mxCell>
                <mxCell id="45" value="" style="shape=crossbar;whiteSpace=wrap;html=1;rounded=1;direction=south;sketch=1;fontSize=16;strokeColor=#FFFFFF;rotation=-180;shadow=1;dashed=1;dashPattern=1 4;" parent="1" vertex="1">
                    <mxGeometry x="350" y="350" width="20" height="110" as="geometry"/>
                </mxCell>
                <mxCell id="46" value="" style="shape=crossbar;whiteSpace=wrap;html=1;rounded=1;direction=south;sketch=1;fontSize=16;strokeColor=#FFFFFF;rotation=-90;shadow=1;dashed=1;dashPattern=1 4;" parent="1" vertex="1">
                    <mxGeometry x="280" y="390" width="20" height="140" as="geometry"/>
                </mxCell>
            </root>
        </mxGraphModel>
    </diagram>
</mxfile>